solid brake_pad
  facet normal 0 0 1
    outer loop
      vertex -8 -3 1
      vertex 8 -3 1
      vertex 8 3 1
    endloop
  endfacet
  facet normal 0 0 1
    outer loop
      vertex -8 -3 1
      vertex 8 3 1
      vertex -8 3 1
    endloop
  endfacet
  facet normal 0 0 -1
    outer loop
      vertex 8 -3 0
      vertex -8 -3 0
      vertex -8 3 0
    endloop
  endfacet
  facet normal 0 0 -1
    outer loop
      vertex 8 -3 0
      vertex -8 3 0
      vertex 8 3 0
    endloop
  endfacet
  facet normal 0 -1 0
    outer loop
      vertex -8 -3 0
      vertex 8 -3 0
      vertex 8 -3 1
    endloop
  endfacet
  facet normal 0 -1 0
    outer loop
      vertex -8 -3 0
      vertex 8 -3 1
      vertex -8 -3 1
    endloop
  endfacet
  facet normal 0 1 0
    outer loop
      vertex 8 3 0
      vertex -8 3 0
      vertex -8 3 1
    endloop
  endfacet
  facet normal 0 1 0
    outer loop
      vertex 8 3 0
      vertex -8 3 1
      vertex 8 3 1
    endloop
  endfacet
  facet normal 1 0 0
    outer loop
      vertex 8 -3 0
      vertex 8 3 0
      vertex 8 3 1
    endloop
  endfacet
  facet normal 1 0 0
    outer loop
      vertex 8 -3 0
      vertex 8 3 1
      vertex 8 -3 1
    endloop
  endfacet
  facet normal -1 0 0
    outer loop
      vertex -8 3 0
      vertex -8 -3 0
      vertex -8 -3 1
    endloop
  endfacet
  facet normal -1 0 0
    outer loop
      vertex -8 3 0
      vertex -8 -3 1
      vertex -8 3 1
    endloop
  endfacet
endsolid brake_pad
