solid serpentine_belt
  facet normal 0 0 1
    outer loop
      vertex 5 0 0.5
      vertex 4.33 2.5 0.5
      vertex 3.54 3.54 0.5
    endloop
  endfacet
  facet normal 0 0 1
    outer loop
      vertex 5 0 0.5
      vertex 3.54 3.54 0.5
      vertex 2.5 4.33 0.5
    endloop
  endfacet
  facet normal 0 0 1
    outer loop
      vertex 5 0 0.5
      vertex 2.5 4.33 0.5
      vertex 0 5 0.5
    endloop
  endfacet
  facet normal 0 0 1
    outer loop
      vertex 5 0 0.5
      vertex 0 5 0.5
      vertex -2.5 4.33 0.5
    endloop
  endfacet
  facet normal 0 0 1
    outer loop
      vertex 5 0 0.5
      vertex -2.5 4.33 0.5
      vertex -3.54 3.54 0.5
    endloop
  endfacet
  facet normal 0 0 1
    outer loop
      vertex 5 0 0.5
      vertex -3.54 3.54 0.5
      vertex -4.33 2.5 0.5
    endloop
  endfacet
  facet normal 0 0 1
    outer loop
      vertex 5 0 0.5
      vertex -4.33 2.5 0.5
      vertex -5 0 0.5
    endloop
  endfacet
  facet normal 0 0 1
    outer loop
      vertex 5 0 0.5
      vertex -5 0 0.5
      vertex -4.33 -2.5 0.5
    endloop
  endfacet
  facet normal 0 0 1
    outer loop
      vertex 5 0 0.5
      vertex -4.33 -2.5 0.5
      vertex -3.54 -3.54 0.5
    endloop
  endfacet
  facet normal 0 0 1
    outer loop
      vertex 5 0 0.5
      vertex -3.54 -3.54 0.5
      vertex -2.5 -4.33 0.5
    endloop
  endfacet
  facet normal 0 0 1
    outer loop
      vertex 5 0 0.5
      vertex -2.5 -4.33 0.5
      vertex 0 -5 0.5
    endloop
  endfacet
  facet normal 0 0 1
    outer loop
      vertex 5 0 0.5
      vertex 0 -5 0.5
      vertex 2.5 -4.33 0.5
    endloop
  endfacet
  facet normal 0 0 1
    outer loop
      vertex 5 0 0.5
      vertex 2.5 -4.33 0.5
      vertex 3.54 -3.54 0.5
    endloop
  endfacet
  facet normal 0 0 1
    outer loop
      vertex 5 0 0.5
      vertex 3.54 -3.54 0.5
      vertex 4.33 -2.5 0.5
    endloop
  endfacet
  facet normal 0 0 -1
    outer loop
      vertex 4.33 2.5 -0.5
      vertex 5 0 -0.5
      vertex 3.54 3.54 -0.5
    endloop
  endfacet
  facet normal 0 0 -1
    outer loop
      vertex 3.54 3.54 -0.5
      vertex 5 0 -0.5
      vertex 2.5 4.33 -0.5
    endloop
  endfacet
  facet normal 0 0 -1
    outer loop
      vertex 2.5 4.33 -0.5
      vertex 5 0 -0.5
      vertex 0 5 -0.5
    endloop
  endfacet
  facet normal 0 0 -1
    outer loop
      vertex 0 5 -0.5
      vertex 5 0 -0.5
      vertex -2.5 4.33 -0.5
    endloop
  endfacet
  facet normal 0 0 -1
    outer loop
      vertex -2.5 4.33 -0.5
      vertex 5 0 -0.5
      vertex -5 0 -0.5
    endloop
  endfacet
  facet normal 0 0 -1
    outer loop
      vertex -5 0 -0.5
      vertex 5 0 -0.5
      vertex 4.33 -2.5 -0.5
    endloop
  endfacet
  facet normal 0 0 -1
    outer loop
      vertex -5 0 -0.5
      vertex 4.33 -2.5 -0.5
      vertex 0 -5 -0.5
    endloop
  endfacet
endsolid serpentine_belt
